<svg xmlns="http://www.w3.org/2000/svg" viewBox="0 0 32 32" width="32" height="32">
  <defs>
    <linearGradient id="bgGrad" x1="0%" y1="0%" x2="100%" y2="100%">
      <stop offset="0%" stop-color="#d97706" />
      <stop offset="50%" stop-color="#f59e0b" />
      <stop offset="100%" stop-color="#fbbf24" />
    </linearGradient>
    <linearGradient id="darkGrad" x1="0%" y1="0%" x2="100%" y2="100%">
      <stop offset="0%" stop-color="#0f172a" />
      <stop offset="100%" stop-color="#020617" />
    </linearGradient>
  </defs>
  <rect width="32" height="32" rx="8" fill="url(#darkGrad)" />
  <rect x="2" y="2" width="28" height="28" rx="6" fill="url(#bgGrad)" stroke="#fef3c7" stroke-width="0.5" />
  <!-- Grace Cross -->
  <path d="M16 5v17" stroke="#020617" stroke-width="2.5" stroke-linecap="round" />
  <path d="M10 10h12" stroke="#020617" stroke-width="2.5" stroke-linecap="round" />
  <!-- Intertwined Heart Rings -->
  <path d="M11.5 18C9.5 16 7 18 7 20.5c0 2.5 4.5 5.5 9 8 4.5-2.5 9-5.5 9-8 0-2.5-2.5-4.5-4.5-2.5-2 2-3.5 3-4.5 3.5-1-.5-2.5-1.5-4.5-3.5z" fill="#020617" fill-opacity="0.25" stroke="#020617" stroke-width="1" />
</svg>
